<svg version="1.1" xmlns="http://www.w3.org/2000/svg" xmlns:xlink="http://www.w3.org/1999/xlink" >
     <symbol viewBox="0 0 373.008 373.008" id="play"> 
       <path d="M61.792,2.588C64.771,0.864,68.105,0,71.444,0c3.33,0,6.663,0.864,9.655,2.588l230.116,167.2
			c5.963,3.445,9.656,9.823,9.656,16.719c0,6.895-3.683,13.272-9.656,16.713L81.099,370.427c-5.972,3.441-13.334,3.441-19.302,0
			c-5.973-3.453-9.66-9.833-9.66-16.724V19.305C52.137,12.413,55.818,6.036,61.792,2.588z"/>
   </symbol>

   <symbol viewBox="0 0 32 32" id="repeat"> 
       <path d="M24.6,11.5c-0.3-0.5-0.9-0.6-1.4-0.3c-0.5,0.3-0.6,0.9-0.3,1.4c0.7,1,1,2.2,1,3.4c0,3.3-2.7,6-6,6h-4c-3.3,0-6-2.7-6-6
	s2.7-6,6-6h3v1.4c0,0.4,0.2,0.7,0.6,0.9c0.1,0.1,0.3,0.1,0.4,0.1c0.2,0,0.4-0.1,0.6-0.2l3-2.4C21.9,9.6,22,9.3,22,9
	s-0.1-0.6-0.4-0.8l-3-2.4c-0.3-0.2-0.7-0.3-1.1-0.1C17.2,5.9,17,6.2,17,6.6V8h-3c-4.4,0-8,3.6-8,8s3.6,8,8,8h4c4.4,0,8-3.6,8-8
	C26,14.4,25.5,12.8,24.6,11.5z"/>
   </symbol>

   <symbol viewBox="0 0 32 32" id="pause"> 
       
<g id="play"/>

<g id="stop"/>

<g id="pause">

<g>

<path d="M6,4C5.45,4,5,4.45,5,5v22c0,0.55,0.45,1,1,1h3c0.55,0,1-0.45,1-1V5c0-0.55-0.45-1-1-1H6z"/>

<path d="M9,29H6c-1.103,0-2-0.897-2-2V5c0-1.103,0.897-2,2-2h3c1.103,0,2,0.897,2,2v22C11,28.103,10.103,29,9,29z M9,27v1V27L9,27    L9,27z M6,5v22h2.997L9,5H6z"/>

</g>

<g>

<path d="M23,4c-0.55,0-1,0.45-1,1v22c0,0.55,0.45,1,1,1h3c0.55,0,1-0.45,1-1V5c0-0.55-0.45-1-1-1H23z"/>

<path d="M26,29h-3c-1.103,0-2-0.897-2-2V5c0-1.103,0.897-2,2-2h3c1.103,0,2,0.897,2,2v22C28,28.103,27.103,29,26,29z M26,27v1V27    L26,27L26,27z M23,5v22h2.997L26,5H23z"/>

</g>

</g>


   </symbol>

   <symbol viewBox="0 0 24 24" id="back"> 
      <path d="M12.3806 16.9203H10.0906C9.68062 16.9203 9.34062 16.5803 9.34062 16.1703C9.34062 15.7603 9.68062 15.4203 10.0906 15.4203H12.3806C12.8106 15.4203 13.1606 15.0703 13.1606 14.6403C13.1606 14.2103 12.8106 13.8603 12.3806 13.8603H10.0906C9.85062 13.8603 9.62062 13.7403 9.48062 13.5503C9.34062 13.3603 9.30062 13.1003 9.38062 12.8703L10.1406 10.5803C10.2406 10.2703 10.5306 10.0703 10.8506 10.0703H13.9106C14.3206 10.0703 14.6606 10.4103 14.6606 10.8203C14.6606 11.2303 14.3206 11.5703 13.9106 11.5703H11.3906L11.1306 12.3603H12.3806C13.6406 12.3603 14.6606 13.3803 14.6606 14.6403C14.6606 15.9003 13.6406 16.9203 12.3806 16.9203Z" />
      <path d="M12.0016 3.47945C11.9216 3.47945 11.8416 3.48945 11.7616 3.48945L12.5816 2.46945C12.8416 2.14945 12.7916 1.66945 12.4616 1.41945C12.1316 1.16945 11.6716 1.20945 11.4116 1.53945L9.44156 3.99945C9.43156 4.00945 9.43156 4.01945 9.42156 4.03945C9.39156 4.07945 9.37156 4.12945 9.35156 4.16945C9.33156 4.21945 9.31156 4.25945 9.30156 4.29945C9.29156 4.34945 9.29156 4.38945 9.29156 4.43945C9.29156 4.48945 9.29156 4.53945 9.29156 4.58945C9.29156 4.60945 9.29156 4.61945 9.29156 4.63945C9.30156 4.66945 9.32156 4.68945 9.33156 4.71945C9.35156 4.76945 9.37156 4.80945 9.39156 4.85945C9.42156 4.89945 9.45156 4.93945 9.49156 4.96945C9.51156 4.99945 9.52156 5.02945 9.55156 5.04945C9.57156 5.05945 9.58156 5.06945 9.60156 5.07945C9.63156 5.09945 9.65156 5.10945 9.68156 5.11945C9.73156 5.14945 9.79156 5.16945 9.85156 5.17945C9.88156 5.19945 9.91156 5.19945 9.94156 5.19945C9.97156 5.19945 9.99156 5.20945 10.0216 5.20945C10.0516 5.20945 10.0716 5.19945 10.0916 5.18945C10.1216 5.18945 10.1516 5.19945 10.1816 5.18945C10.8216 5.03945 11.4216 4.96945 11.9916 4.96945C16.4816 4.96945 20.1316 8.61945 20.1316 13.1095C20.1316 17.5994 16.4816 21.2495 11.9916 21.2495C7.50156 21.2495 3.85156 17.5994 3.85156 13.1095C3.85156 11.3695 4.42156 9.68945 5.50156 8.24945C5.75156 7.91945 5.68156 7.44945 5.35156 7.19945C5.02156 6.94945 4.55156 7.01945 4.30156 7.34945C3.02156 9.04945 2.35156 11.0395 2.35156 13.1095C2.35156 18.4195 6.67156 22.7495 11.9916 22.7495C17.3116 22.7495 21.6316 18.4295 21.6316 13.1095C21.6316 7.78945 17.3116 3.47945 12.0016 3.47945Z" />

   </symbol>

   <symbol viewBox="0 0 24 24" id="forward"> 
      <path d="M19.4791 7.09052C19.2191 6.77052 18.7491 6.72052 18.4291 6.98052C18.1091 7.24052 18.0591 7.71052 18.3191 8.03052C19.4491 9.43052 20.0791 11.0905 20.1391 12.8305C20.2991 17.3105 16.7791 21.0905 12.2891 21.2405C7.79906 21.4005 4.02906 17.8805 3.86906 13.4005C3.70906 8.92052 7.22906 5.14052 11.7191 4.99052C12.2891 4.97052 12.8891 5.02052 13.5391 5.15052C13.5791 5.16052 13.6191 5.15052 13.6591 5.15052C13.7591 5.20052 13.8791 5.23052 13.9891 5.23052C14.1591 5.23052 14.3191 5.18052 14.4591 5.06052C14.7791 4.80052 14.8291 4.33052 14.5791 4.01052L12.5991 1.54052C12.3391 1.22052 11.8691 1.16052 11.5491 1.42052C11.2291 1.68052 11.1791 2.15052 11.4291 2.47052L12.2591 3.50052C12.0691 3.49052 11.8691 3.48052 11.6791 3.49052C6.36906 3.67052 2.19906 8.15052 2.38906 13.4605C2.57906 18.7705 7.04906 22.9405 12.3591 22.7505C17.6691 22.5605 21.8391 18.0905 21.6491 12.7805C21.5591 10.7105 20.8191 8.74052 19.4791 7.09052Z" />
<path d="M12.3806 16.9203H10.0906C9.68062 16.9203 9.34062 16.5803 9.34062 16.1703C9.34062 15.7603 9.68062 15.4203 10.0906 15.4203H12.3806C12.8106 15.4203 13.1606 15.0703 13.1606 14.6403C13.1606 14.2103 12.8106 13.8603 12.3806 13.8603H10.0906C9.85062 13.8603 9.62062 13.7403 9.48062 13.5503C9.34062 13.3603 9.30062 13.1003 9.38062 12.8703L10.1406 10.5803C10.2406 10.2703 10.5306 10.0703 10.8506 10.0703H13.9106C14.3206 10.0703 14.6606 10.4103 14.6606 10.8203C14.6606 11.2303 14.3206 11.5703 13.9106 11.5703H11.3906L11.1306 12.3603H12.3806C13.6406 12.3603 14.6606 13.3803 14.6606 14.6403C14.6606 15.9003 13.6406 16.9203 12.3806 16.9203Z" />

   </symbol>
</svg>
